<?xml version="1.0" encoding="utf-8"?>
<!-- Generator: Adobe Illustrator 24.0.3, SVG Export Plug-In . SVG Version: 6.00 Build 0)  -->
<svg version="1.1" id="Layer_1" xmlns="http://www.w3.org/2000/svg" xmlns:xlink="http://www.w3.org/1999/xlink" x="0px" y="0px"
	 viewBox="0 0 72 72" style="enable-background:new 0 0 72 72;" xml:space="preserve">
<style type="text/css">
	.st0{fill:#00A850;}
	.st1{fill:none;stroke:#006739;stroke-miterlimit:10;}
</style>
<g>
	
		<ellipse transform="matrix(0.4138 -0.9103 0.9103 0.4138 -19.4217 41.555)" class="st0" cx="22.56" cy="35.86" rx="5.61" ry="13.11"/>
	
		<ellipse transform="matrix(0.4316 -0.9021 0.9021 0.4316 -7.6881 53.5258)" class="st0" cx="38.63" cy="32.86" rx="16.53" ry="7.24"/>
	<ellipse class="st0" cx="44.87" cy="44.9" rx="13.26" ry="7.69"/>
	<ellipse transform="matrix(0.61 -0.7924 0.7924 0.61 -30.4491 56.0849)" class="st0" cx="41.76" cy="58.98" rx="7.18" ry="16.66"/>
	
		<ellipse transform="matrix(0.5843 -0.8115 0.8115 0.5843 -36.3092 40.2817)" class="st0" cx="21.17" cy="55.58" rx="13.4" ry="6.44"/>
	<path class="st1" d="M50.94,1.75c7.85,20.16,1.05,41.42-15.2,47.53"/>
	<line class="st1" x1="56.2" y1="20.07" x2="61.42" y2="10.2"/>
	<line class="st1" x1="51.26" y1="13.93" x2="45.26" y2="4.5"/>
</g>
</svg>
